<svg xmlns="http://www.w3.org/2000/svg" width="70" height="70">
    <path fill="#e22f28" d="M20.0 9.0a18 18 0 0 1 31.17691453624 0l16.0 28.0a18 18 0 0 1 -15.58845726812 27l-32.0 0a18 18 0 0 1 -15.58845726812 -27"></path>
    <path fill="none" stroke-width="5" stroke="#ffae00" d="M24.0 15.0a14.5 21 0 0 1 24.0 0l13.0 21.0a14.5 13.75 0 0 1 -12.0 22.0l-24.0 0a14.5 13.75 0 0 1 -13 -22.5l12.8 -22" ></path>
    <!-- <path fill="white" stroke-width="4" stroke="white" d="M24.6 28.0a14.5 21 0 0 1 24.0 0l0.0 0.0a14.5 13.75 0 0 1 -12.0 22.0l-0.0 0a14.5 13.75 0 0 1 -13 -22.5l1 10" ></path> -->
</svg>